<svg viewBox="0 0 74 74" fill="none" xmlns="http://www.w3.org/2000/svg">
  <path d="M0 25.7879C0 14.1599 1.12121 8.34591 4.73356 4.73356C8.34591 1.12121 14.1599 0 25.7879 0H48.2121C59.8401 0 65.6541 1.12121 69.2664 4.73356C72.8788 8.34591 74 14.1599 74 25.7879V48.2121C74 59.8401 72.8788 65.6541 69.2664 69.2664C65.6541 72.8788 59.8401 74 48.2121 74H25.7879C14.1599 74 8.34591 72.8788 4.73356 69.2664C1.12121 65.6541 0 59.8401 0 48.2121V25.7879Z" fill="#0C0A04"/>
  <path d="M22.8653 29.9652C20.8197 26.2455 17.6616 23.207 13.8025 21.2458L8.40039 18.5004V17.2671H22.321C25.2655 17.2671 27.5872 17.8701 29.286 19.076C31.0414 20.2271 32.542 21.9538 33.7877 24.256L43.8955 43.2493L49.3646 30.324C51.2187 25.9421 47.9235 21.1096 43.1673 21.2352V21.2352V17.2671H62.6671V21.2352V21.2352C60.4881 21.075 58.4496 22.3219 57.6 24.3348L42.883 59.2004H38.9427L22.8653 29.9652Z" fill="#7FFA7C"/>
</svg>
