<svg xmlns="http://www.w3.org/2000/svg" viewBox="0 0 20 13">
  <defs>
    <style>
      .favico { fill:#000; stroke:#000 }
      @media (prefers-color-scheme: dark) {
        .favico { fill: #FFF; stroke: #fff }
      }
    </style>
  </defs>
  <path class="favico" stroke-width="0.8" d="M1.48005 1.28006L0.680054 1.04006V0.800058H2.60005C3.15472 0.800058 3.60805 0.928058 3.96005 1.18406C4.31205 1.42939 4.57872 1.75473 4.76005 2.16006L7.59205 8.60806L10.2001 1.52006L9.00005 1.04006V0.800058H11.9601V1.04006L10.6801 1.52006L6.76005 12.1601H6.28005L1.48005 1.28006Z" fill="white"/>
  <path class="favico" stroke-width="0.8" d="M15.2482 12.2401C14.4908 12.2401 13.7815 12.0694 13.1202 11.7281C12.8215 11.5787 12.5708 11.4027 12.3682 11.2001C12.2188 11.4454 12.0322 11.6641 11.8082 11.8561C11.6162 11.9947 11.5095 12.0694 11.4882 12.0801H11.0882V9.04006H11.7282C11.8882 9.56273 12.1122 10.0321 12.4002 10.4481C13.0508 11.3761 13.8935 11.8401 14.9282 11.8401C15.5362 11.8401 16.0215 11.6587 16.3842 11.2961C16.7468 10.9334 16.9282 10.4481 16.9282 9.84006C16.9282 9.48806 16.8215 9.17339 16.6082 8.89606C16.4055 8.61873 16.1495 8.37339 15.8402 8.16006C15.5308 7.94673 15.0988 7.68006 14.5442 7.36006C13.8402 6.96539 13.2695 6.60806 12.8322 6.28806C12.3948 5.96806 12.0215 5.56806 11.7122 5.08806C11.4028 4.59739 11.2482 4.02139 11.2482 3.36006C11.2482 2.83739 11.3922 2.36806 11.6802 1.95206C11.9788 1.52539 12.4215 1.18939 13.0082 0.944058C13.5948 0.688059 14.3148 0.560059 15.1682 0.560059C15.7868 0.560059 16.4055 0.736059 17.0242 1.08806C17.2588 1.21606 17.4935 1.38673 17.7282 1.60006C17.9095 1.32272 18.0962 1.10406 18.2882 0.944058C18.4802 0.805392 18.5868 0.730725 18.6082 0.720058H19.0082V3.76006H18.3682C18.2295 3.24806 18.0215 2.78406 17.7442 2.36806C17.4882 1.96273 17.1682 1.62673 16.7842 1.36006C16.4108 1.09339 15.9788 0.960058 15.4882 0.960058C15.0722 0.960058 14.7148 1.12539 14.4162 1.45606C14.1175 1.78673 13.9682 2.20806 13.9682 2.72006C13.9682 3.11473 14.0802 3.47206 14.3042 3.79206C14.5388 4.10139 14.8215 4.37339 15.1522 4.60806C15.4935 4.84273 15.9522 5.12539 16.5282 5.45606C17.2002 5.84006 17.7442 6.18139 18.1602 6.48006C18.5762 6.77873 18.9282 7.15206 19.2162 7.60006C19.5042 8.03739 19.6482 8.54406 19.6482 9.12006C19.6482 9.69606 19.4828 10.2241 19.1522 10.7041C18.8215 11.1734 18.3255 11.5467 17.6642 11.8241C17.0028 12.1014 16.1975 12.2401 15.2482 12.2401Z" fill="white"/>
</svg>
