<svg xmlns="http://www.w3.org/2000/svg" viewBox="0 0 197.1 156.31">
  <defs>
    <style>
      .cls-1 { fill:#000; }
      @media (prefers-color-scheme: dark) {
        .cls-1 { fill: #FFF; }
      }
    </style>
  </defs>
  <g id="Camada_2" data-name="Camada 2"><g id="Camada_1-2" data-name="Camada 1"><path class="cls-1" d="M191.33,94.11a54.72,54.72,0,0,0-14.14-14.88,253.28,253.28,0,0,0-21.84-13.71Q143.78,58.88,137,54.16a47.2,47.2,0,0,1-11.34-11,23.52,23.52,0,0,1-4.61-14.24q0-10.27,6-16.92a18.64,18.64,0,0,1,14.34-6.62,29.53,29.53,0,0,1,17.45,5.34,47.23,47.23,0,0,1,12.75,13.49A63.42,63.42,0,0,1,180,42.81h8.56V2.14h-5.36q-.42.19-4.28,3a39.42,39.42,0,0,0-7.49,8.78A48.63,48.63,0,0,0,162,7.07Q149.55,0,137.15,0a80.61,80.61,0,0,0-24,3.2Q110.62,4,108.25,5a49.77,49.77,0,0,0-8.06,4.29,35,35,0,0,0-9.61,9.22,32.32,32.32,0,0,0-5.9,18.94c0,8.84,2.08,16.53,6.21,23l.38.57a58.88,58.88,0,0,0,4.27,5.79,56.74,56.74,0,0,0,10.35,9.8c.71.52,1.44,1,2.21,1.58L97.4,107.55,61.19,20.34A31.87,31.87,0,0,0,50.48,7.17q-7-5-18.19-5H0v3.2L23.65,23l57.88,131.2H88l6.51-17.67c1,1.13,2.06,2.4,3.38,3.84a47.3,47.3,0,0,0,11.9,9.11,61.33,61.33,0,0,0,28.48,6.86q19.07,0,32.33-5.58C179.41,147,186,142,190.47,135.64a36.09,36.09,0,0,0,6.63-21.08A36.65,36.65,0,0,0,191.33,94.11Zm-37.91,49.56q-7.28,7.28-19.48,7.28-20.77,0-33.84-18.62c-.91-1.33-1.78-2.69-2.59-4.09l16.88-45.82c4.22,2.7,9,5.55,14.41,8.57q11.13,6.44,17.34,10.7a44.28,44.28,0,0,1,10.38,9.86,20.5,20.5,0,0,1,4.19,12.63Q160.71,136.41,153.42,143.67Z"/></g></g>
</svg>
